<?xml version="1.0" encoding="UTF-8" standalone="no"?>
<!-- Created with Inkscape (http://www.inkscape.org/) -->

<svg
   width="210mm"
   height="297mm"
   viewBox="0 0 210 297"
   version="1.1"
   id="svg1"
   sodipodi:docname="Design Robot Définitif Groupe 2D.svg"
   inkscape:version="1.3 (0e150ed, 2023-07-21)"
   xmlns:inkscape="http://www.inkscape.org/namespaces/inkscape"
   xmlns:sodipodi="http://sodipodi.sourceforge.net/DTD/sodipodi-0.dtd"
   xmlns="http://www.w3.org/2000/svg"
   xmlns:svg="http://www.w3.org/2000/svg">
  <sodipodi:namedview
     id="namedview1"
     pagecolor="#ffffff"
     bordercolor="#999999"
     borderopacity="1"
     inkscape:showpageshadow="2"
     inkscape:pageopacity="0"
     inkscape:pagecheckerboard="0"
     inkscape:deskcolor="#d1d1d1"
     inkscape:document-units="mm"
     inkscape:zoom="0.92834862"
     inkscape:cx="268.21821"
     inkscape:cy="1218.2923"
     inkscape:window-width="1440"
     inkscape:window-height="793"
     inkscape:window-x="0"
     inkscape:window-y="25"
     inkscape:window-maximized="0"
     inkscape:current-layer="layer1" />
  <defs
     id="defs1">
    <clipPath
       clipPathUnits="userSpaceOnUse"
       id="clipPath4">
      <g
         inkscape:label="Clip"
         id="use4"
         style="vector-effect:non-scaling-stroke;stroke-width:0.277324;stroke-dasharray:none;-inkscape-stroke:hairline">
        <rect
           style="vector-effect:non-scaling-stroke;fill:none;stroke:#000000;stroke-width:0.277324;stroke-dasharray:none;stroke-opacity:1;-inkscape-stroke:hairline;image-rendering:auto"
           id="rect4"
           width="118.67045"
           height="148.03221"
           x="47.71286"
           y="72.181" />
      </g>
    </clipPath>
    <inkscape:path-effect
       effect="bspline"
       id="path-effect8"
       is_visible="true"
       lpeversion="1.3"
       weight="33.333333"
       steps="2"
       helper_size="0"
       apply_no_weight="true"
       apply_with_weight="true"
       only_selected="false"
       uniform="false" />
    <inkscape:path-effect
       effect="bspline"
       id="path-effect8-9"
       is_visible="true"
       lpeversion="1.3"
       weight="33.333333"
       steps="2"
       helper_size="0"
       apply_no_weight="true"
       apply_with_weight="true"
       only_selected="false"
       uniform="false" />
    <inkscape:path-effect
       effect="bspline"
       id="path-effect8-0"
       is_visible="true"
       lpeversion="1.3"
       weight="33.333333"
       steps="2"
       helper_size="0"
       apply_no_weight="true"
       apply_with_weight="true"
       only_selected="false"
       uniform="false" />
    <inkscape:path-effect
       effect="bspline"
       id="path-effect8-9-7"
       is_visible="true"
       lpeversion="1.3"
       weight="33.333333"
       steps="2"
       helper_size="0"
       apply_no_weight="true"
       apply_with_weight="true"
       only_selected="false"
       uniform="false" />
    <inkscape:path-effect
       effect="bspline"
       id="path-effect20"
       is_visible="true"
       lpeversion="1.3"
       weight="33.333333"
       steps="2"
       helper_size="0"
       apply_no_weight="true"
       apply_with_weight="true"
       only_selected="false"
       uniform="false" />
    <inkscape:path-effect
       effect="bspline"
       id="path-effect21"
       is_visible="true"
       lpeversion="1.3"
       weight="33.333333"
       steps="2"
       helper_size="0"
       apply_no_weight="true"
       apply_with_weight="true"
       only_selected="false"
       uniform="false" />
    <inkscape:path-effect
       effect="bspline"
       id="path-effect22"
       is_visible="true"
       lpeversion="1.3"
       weight="33.333333"
       steps="2"
       helper_size="0"
       apply_no_weight="true"
       apply_with_weight="true"
       only_selected="false"
       uniform="false" />
    <inkscape:path-effect
       effect="bspline"
       id="path-effect23"
       is_visible="true"
       lpeversion="1.3"
       weight="33.333333"
       steps="2"
       helper_size="0"
       apply_no_weight="true"
       apply_with_weight="true"
       only_selected="false"
       uniform="false" />
    <inkscape:path-effect
       effect="bspline"
       id="path-effect24"
       is_visible="true"
       lpeversion="1.3"
       weight="33.333333"
       steps="2"
       helper_size="0"
       apply_no_weight="true"
       apply_with_weight="true"
       only_selected="false"
       uniform="false" />
    <inkscape:path-effect
       effect="bspline"
       id="path-effect25"
       is_visible="true"
       lpeversion="1.3"
       weight="33.333333"
       steps="2"
       helper_size="0"
       apply_no_weight="true"
       apply_with_weight="true"
       only_selected="false"
       uniform="false" />
  </defs>
  <g
     inkscape:label="Calque 1"
     inkscape:groupmode="layer"
     id="layer1">
    <path
       style="display:inline;vector-effect:non-scaling-stroke;fill:none;stroke:#000000;stroke-width:0.264583;stroke-dasharray:none;stroke-opacity:1;-inkscape-stroke:hairline"
       id="path4-0"
       transform="scale(-1)"
       sodipodi:type="arc"
       sodipodi:cx="-112.97301"
       sodipodi:cy="-275.28354"
       sodipodi:rx="1.9405376"
       sodipodi:ry="1.9405376"
       sodipodi:start="0"
       sodipodi:end="6.2825678"
       sodipodi:arc-type="arc"
       d="m -111.03247,-275.28354 a 1.9405376,1.9405376 0 0 1 -1.94024,1.94054 1.9405376,1.9405376 0 0 1 -1.94083,-1.93994 1.9405376,1.9405376 0 0 1 1.93963,-1.94114 1.9405376,1.9405376 0 0 1 1.94144,1.93934"
       sodipodi:open="true" />
    <path
       style="display:inline;vector-effect:non-scaling-stroke;fill:none;stroke:#000000;stroke-width:0.264583;stroke-dasharray:none;stroke-opacity:1;-inkscape-stroke:hairline"
       id="path4-0-5"
       transform="scale(-1)"
       sodipodi:type="arc"
       sodipodi:cx="-112.97301"
       sodipodi:cy="-250.28354"
       sodipodi:rx="1.9405376"
       sodipodi:ry="1.9405376"
       sodipodi:start="0"
       sodipodi:end="6.2825678"
       sodipodi:arc-type="arc"
       d="m -111.03247,-250.28354 a 1.9405376,1.9405376 0 0 1 -1.94024,1.94054 1.9405376,1.9405376 0 0 1 -1.94083,-1.93994 1.9405376,1.9405376 0 0 1 1.93963,-1.94114 1.9405376,1.9405376 0 0 1 1.94144,1.93934"
       sodipodi:open="true" />
    <path
       style="display:inline;vector-effect:non-scaling-stroke;fill:none;stroke:#000000;stroke-width:0.264583;stroke-dasharray:none;stroke-opacity:1;-inkscape-stroke:hairline"
       id="path4-0-5-2"
       transform="scale(-1)"
       sodipodi:type="arc"
       sodipodi:cx="-148.97299"
       sodipodi:cy="-250.28354"
       sodipodi:rx="1.9405376"
       sodipodi:ry="1.9405376"
       sodipodi:start="0"
       sodipodi:end="6.2825678"
       sodipodi:arc-type="arc"
       d="m -147.03245,-250.28354 a 1.9405376,1.9405376 0 0 1 -1.94024,1.94054 1.9405376,1.9405376 0 0 1 -1.94084,-1.93994 1.9405376,1.9405376 0 0 1 1.93964,-1.94114 1.9405376,1.9405376 0 0 1 1.94144,1.93934"
       sodipodi:open="true" />
    <path
       style="display:inline;vector-effect:non-scaling-stroke;fill:none;stroke:#000000;stroke-width:0.264583;stroke-dasharray:none;stroke-opacity:1;-inkscape-stroke:hairline"
       id="path4-0-54"
       transform="scale(-1)"
       sodipodi:type="arc"
       sodipodi:cx="-148.97299"
       sodipodi:cy="-275.28354"
       sodipodi:rx="1.9405376"
       sodipodi:ry="1.9405376"
       sodipodi:start="0"
       sodipodi:end="6.2825678"
       sodipodi:arc-type="arc"
       d="m -147.03245,-275.28354 a 1.9405376,1.9405376 0 0 1 -1.94024,1.94054 1.9405376,1.9405376 0 0 1 -1.94084,-1.93994 1.9405376,1.9405376 0 0 1 1.93964,-1.94114 1.9405376,1.9405376 0 0 1 1.94144,1.93934"
       sodipodi:open="true" />
    <path
       style="display:inline;vector-effect:non-scaling-stroke;fill:none;stroke:#000000;stroke-width:0.296616;stroke-dasharray:none;stroke-opacity:1;-inkscape-stroke:hairline"
       d="m 29.714055,163.3302 c 0,-3.49578 0,-6.99155 2.136346,-11.00526 2.136347,-4.0137 6.408873,-8.54517 9.192555,-14.17731 2.783681,-5.63214 4.078386,-12.3646 5.373117,-19.0972"
       id="path7"
       transform="matrix(0.5931739,0,0,1.3584233,35.46731,5.5626817)"
       inkscape:original-d="m 29.714055,163.3302 c 0,-3.49578 0,-6.99155 0,-10.48732 4.272695,-4.53164 8.545218,-9.06311 12.817826,-13.59466 1.294757,-6.73273 2.589462,-13.46519 3.884192,-20.19779"
       inkscape:path-effect="#path-effect8" />
    <path
       style="display:inline;vector-effect:non-scaling-stroke;fill:none;stroke:#000000;stroke-width:0.296616;stroke-dasharray:none;stroke-opacity:1;-inkscape-stroke:hairline"
       d="m 29.714055,163.3302 c 0,-3.49578 0,-6.99155 2.136346,-11.00526 2.136347,-4.0137 6.408873,-8.54517 9.192555,-14.17731 2.783681,-5.63214 4.078386,-12.3646 5.373117,-19.0972"
       id="path7-9"
       transform="matrix(-0.59190268,0,0,1.357593,220.47391,5.6615307)"
       inkscape:original-d="m 29.714055,163.3302 c 0,-3.49578 0,-6.99155 0,-10.48732 4.272695,-4.53164 8.545218,-9.06311 12.817826,-13.59466 1.294757,-6.73273 2.589462,-13.46519 3.884192,-20.19779"
       inkscape:path-effect="#path-effect8-9" />
    <path
       style="display:inline;vector-effect:non-scaling-stroke;fill:none;stroke:#000000;stroke-width:0.264583;stroke-dasharray:none;stroke-opacity:1;-inkscape-stroke:hairline"
       id="path4-0-5-29"
       transform="scale(-1)"
       sodipodi:type="arc"
       sodipodi:cx="-76.25"
       sodipodi:cy="-221.03383"
       sodipodi:rx="1.212836"
       sodipodi:ry="1.2128358"
       sodipodi:start="0"
       sodipodi:end="6.2825678"
       sodipodi:arc-type="arc"
       d="m -75.037164,-221.03383 a 1.212836,1.2128358 0 0 1 -1.212649,1.21284 1.212836,1.2128358 0 0 1 -1.213023,-1.21246 1.212836,1.2128358 0 0 1 1.212274,-1.21321 1.212836,1.2128358 0 0 1 1.213398,1.21208"
       sodipodi:open="true" />
    <path
       style="display:inline;vector-effect:non-scaling-stroke;fill:none;stroke:#000000;stroke-width:0.264583;stroke-dasharray:none;stroke-opacity:1;-inkscape-stroke:hairline"
       id="path4-0-5-29-0"
       transform="scale(-1)"
       sodipodi:type="arc"
       sodipodi:cx="-134.74998"
       sodipodi:cy="-221.03383"
       sodipodi:rx="1.212836"
       sodipodi:ry="1.2128358"
       sodipodi:start="0"
       sodipodi:end="6.2825678"
       sodipodi:arc-type="arc"
       d="m -133.53715,-221.03383 a 1.212836,1.2128358 0 0 1 -1.21265,1.21284 1.212836,1.2128358 0 0 1 -1.21302,-1.21246 1.212836,1.2128358 0 0 1 1.21227,-1.21321 1.212836,1.2128358 0 0 1 1.2134,1.21208"
       sodipodi:open="true" />
    <path
       style="display:inline;vector-effect:non-scaling-stroke;fill:none;stroke:#000000;stroke-width:0.264583;stroke-dasharray:none;stroke-opacity:1;-inkscape-stroke:hairline"
       id="path4-0-5-29-5"
       transform="scale(-1)"
       sodipodi:type="arc"
       sodipodi:cx="-76.25"
       sodipodi:cy="-172.03383"
       sodipodi:rx="1.212836"
       sodipodi:ry="1.2128358"
       sodipodi:start="0"
       sodipodi:end="6.2825678"
       sodipodi:arc-type="arc"
       d="m -75.037164,-172.03383 a 1.212836,1.2128358 0 0 1 -1.212649,1.21284 1.212836,1.2128358 0 0 1 -1.213023,-1.21246 1.212836,1.2128358 0 0 1 1.212274,-1.21321 1.212836,1.2128358 0 0 1 1.213398,1.21208"
       sodipodi:open="true" />
    <path
       style="display:inline;vector-effect:non-scaling-stroke;fill:none;stroke:#000000;stroke-width:0.264583;stroke-dasharray:none;stroke-opacity:1;-inkscape-stroke:hairline"
       id="path4-0-5-29-5-6"
       transform="scale(-1)"
       sodipodi:type="arc"
       sodipodi:cx="-134.74998"
       sodipodi:cy="-172.03383"
       sodipodi:rx="1.212836"
       sodipodi:ry="1.2128358"
       sodipodi:start="0"
       sodipodi:end="6.2825678"
       sodipodi:arc-type="arc"
       d="m -133.53715,-172.03383 a 1.212836,1.2128358 0 0 1 -1.21265,1.21284 1.212836,1.2128358 0 0 1 -1.21302,-1.21246 1.212836,1.2128358 0 0 1 1.21227,-1.21321 1.212836,1.2128358 0 0 1 1.2134,1.21208"
       sodipodi:open="true" />
    <path
       style="display:inline;vector-effect:non-scaling-stroke;fill:none;stroke:#000000;stroke-width:0.264583;stroke-dasharray:none;stroke-opacity:1;-inkscape-stroke:hairline"
       id="path4-0-5-4"
       transform="scale(-1)"
       sodipodi:type="arc"
       sodipodi:cx="-105"
       sodipodi:cy="-232.28355"
       sodipodi:rx="1.9405376"
       sodipodi:ry="1.9405376"
       sodipodi:start="0"
       sodipodi:end="6.2825678"
       sodipodi:arc-type="arc"
       d="m -103.05946,-232.28355 a 1.9405376,1.9405376 0 0 1 -1.94024,1.94053 1.9405376,1.9405376 0 0 1 -1.94084,-1.93993 1.9405376,1.9405376 0 0 1 1.93964,-1.94114 1.9405376,1.9405376 0 0 1 1.94144,1.93934"
       sodipodi:open="true" />
    <rect
       style="display:inline;vector-effect:non-scaling-stroke;fill:none;stroke:#000000;stroke-width:0.303616;stroke-dasharray:none;stroke-opacity:1;-inkscape-stroke:hairline"
       id="rect3-10"
       width="2.9613476"
       height="7.8499999"
       x="72.075813"
       y="228.97899" />
    <rect
       style="display:inline;vector-effect:non-scaling-stroke;fill:none;stroke:#000000;stroke-width:0.303616;stroke-dasharray:none;stroke-opacity:1;-inkscape-stroke:hairline"
       id="rect3-10-6"
       width="2.9613476"
       height="7.8499999"
       x="181.1841"
       y="228.97899" />
    <rect
       style="display:inline;vector-effect:non-scaling-stroke;fill:none;stroke:#000000;stroke-width:0.236817;stroke-dasharray:none;stroke-opacity:1;-inkscape-stroke:hairline"
       id="rect8-0-3-5-4-9"
       width="3.0999999"
       height="15"
       x="-145.28261"
       y="143.13354"
       transform="rotate(-90)" />
    <rect
       style="display:inline;vector-effect:non-scaling-stroke;fill:none;stroke:#000000;stroke-width:0.236817;stroke-dasharray:none;stroke-opacity:1;-inkscape-stroke:hairline"
       id="rect8-0-3-5-4-9-3"
       width="3.0999999"
       height="15"
       x="-145.28261"
       y="98.13356"
       transform="rotate(-90)" />
    <path
       style="vector-effect:non-scaling-stroke;fill:none;stroke:#000000;stroke-width:0.26466;stroke-dashoffset:3;-inkscape-stroke:hairline"
       d="m 53.092912,227.43426 0.02101,62.88606 H 202.88608 v -62.92285"
       id="path2" />
    <path
       style="vector-effect:non-scaling-stroke;fill:none;stroke:#000000;stroke-width:0.264583;stroke-dashoffset:3;-inkscape-stroke:hairline"
       d="m 63.000113,167.28356 0.02246,-1.46896 0.0534,-1.23976 0.06299,-0.95914 0.112075,-1.26474 0.09545,-0.86262 0.0862,-0.6803 0.06174,-0.44586 0.06641,-0.44914 0.04705,-0.30209 0.09394,-0.56955 0.07945,-0.45204 0.101346,-0.54388 0.133578,-0.67022 0.135342,-0.63447 0.180414,-0.78883 0.138092,-0.56716 0.14143,-0.55296 0.147968,-0.55216 0.104661,-0.37608 0.123304,-0.42918 0.110612,-0.37328 0.147799,-0.48299 0.155469,-0.4903 0.154559,-0.47105 0.205801,-0.60431 0.135972,-0.38618 0.219215,-0.6027 0.123931,-0.33066 0.136334,-0.35596 0.128564,-0.32863 0.187428,-0.46756 0.248185,-0.59961 1.136602,-2.50975 0.426119,-0.85848 0.442246,-0.85175 0.479856,-0.88382 0.360628,-0.63917 0.421997,-0.72302 0.419428,-0.69406 0.52633,-0.83918 0.771716,-1.17259 0.314761,-0.4602 0.224319,-0.322 0.175816,-0.24902 0.20084,-0.28097 0.258228,-0.35593 0.242956,-0.32959 0.260332,-0.34766 0.314647,-0.41285 0.167468,-0.21656 0.242494,-0.3098 0.143735,-0.18155 0.199347,-0.24931 0.169958,-0.21032 0.171122,-0.20971 0.186518,-0.22629 0.413419,-0.49332 0.377106,-0.44039 0.627358,-0.71333 0.438976,-0.48546 0.425154,-0.45995 0.456676,-0.48327 0.395203,-0.40956 0.512206,-0.51931 0.528368,-0.52261 0.440825,-0.42626 0.348782,-0.33116 0.397629,-0.37118 0.37439,-0.34345 0.358326,-0.32337 0.56221,-0.49717 0.505349,-0.43657 0.408874,-0.34631 0.414213,-0.3447 0.532731,-0.4345 0.677963,-0.53904 0.634447,-0.49081 0.675518,-0.50863 0.457904,-0.33685 0.496593,-0.35827 0.553911,-0.39118 0.489823,-0.33869 0.408869,-0.27764 0.715277,-0.47487 0.969531,-0.62231 0.737325,-0.45737 0.654799,-0.39503 0.562004,-0.33089 0.483714,-0.2789 0.693372,-0.39046 0.627827,-0.34428 0.711536,-0.37977 0.667113,-0.34624 0.789776,-0.3979 0.651909,-0.31885 0.62035,-0.29553 0.591124,-0.27456 0.565174,-0.25621 0.643345,-0.28425 0.64221,-0.27602 0.745166,-0.31079 0.61631,-0.24945 0.53999,-0.21301 0.75594,-0.28959 0.72971,-0.27019 0.87735,-0.31285 0.48567,-0.16765 0.64434,-0.2164 0.55648,-0.18142 0.57306,-0.1816 0.81371,-0.24883 0.40048,-0.11862 0.34051,-0.0989 0.82207,-0.23128 0.53646,-0.14531 0.56897,-0.14932 0.40228,-0.10261 0.49664,-0.12331 0.49308,-0.11879 0.76404,-0.17693 0.56534,-0.12538 0.95122,-0.20044 0.65329,-0.13008 0.58151,-0.11064 0.41423,-0.0759 0.58726,-0.10338 0.44981,-0.0759 0.5384,-0.0871 0.72275,-0.11053 0.70864,-0.10131 0.758,-0.10069 0.56663,-0.0701 0.76687,-0.0879 0.70381,-0.0736 0.58855,-0.0563 0.76695,-0.0664 0.71047,-0.0544 0.55553,-0.0378 0.78724,-0.0465 0.55665,-0.0278 0.76633,-0.0315 0.73137,-0.0228 0.61159,-0.0136 0.62841,-0.009 0.72904,-0.004 0.59952,0.002 0.45627,0.005 0.50782,0.009 0.43931,0.0105 0.2961,0.008 0.39684,0.0132 0.39765,0.0154 0.39688,0.0174 0.3474,0.017 0.43873,0.0238 0.27435,0.0162 0.25908,0.0162 0.26942,0.0178 0.34725,0.0244 0.29629,0.0221 0.18723,0.0146 0.39554,0.0323 0.4378,0.0383 0.33027,0.0306 0.34695,0.0337 0.3192,0.0325 0.34575,0.0367 0.35482,0.0394 0.35661,0.0413 0.29002,0.0349 0.45227,0.0567 0.31949,0.0418 0.23209,0.0312 0.19963,0.0275 0.18328,0.0257 0.21032,0.0301 0.18664,0.0272 0.25964,0.0386 0.21502,0.0327 0.15351,0.0238 0.31128,0.0492 0.23567,0.0381 0.20266,0.0334 0.2354,0.0395 0.24625,0.0422 0.2558,0.0447 0.26016,0.0464 0.25124,0.0458 0.31365,0.0584 0.32992,0.0629 0.29718,0.058 0.26294,0.0524 0.28065,0.057 0.35327,0.0734 0.31424,0.0668 0.47319,0.10335 0.32072,0.0719 0.23875,0.0545 0.23896,0.0554 0.24685,0.0581 0.22883,0.0547 0.2883,0.07 0.29797,0.0737 0.29576,0.0744 0.33703,0.0864 0.27719,0.0724 0.36403,0.0968 0.32431,0.088 0.30398,0.0839 0.32145,0.0903 0.34668,0.0992 0.41748,0.12193 0.42695,0.12754 0.46488,0.14215 0.37985,0.11871 0.53639,0.17158 0.41646,0.13644 1.35474,0.46357 1.04414,0.37827 0.80662,0.30502 1.11513,0.44044 0.94778,0.39185 1.0192,0.43978 1.46344,0.66583 1.02584,0.49166 0.77393,0.38496 0.80287,0.41245 0.68821,0.36443 0.74001,0.40333 0.93514,0.52716 0.87105,0.50913 0.81889,0.4951 0.83861,0.52409 1.00209,0.64978 0.81947,0.55112 0.92989,0.64785 0.99285,0.71923 0.80434,0.60449 1.19079,0.93274 0.88904,0.72745 0.78443,0.6652 0.5631,0.49165 0.83451,0.75144 0.76721,0.71609 0.67117,0.64744 0.79723,0.79599 0.77073,0.79907 0.61554,0.66039 0.68159,0.75575 0.52816,0.6044 0.68731,0.81268 0.56556,0.69236 0.64454,0.817 0.5997,0.78891 0.64275,0.87887 0.76344,1.093 0.65005,0.97718 0.69833,1.10313 1.16929,1.99107 0.71442,1.32206 0.5439,1.07091 0.45417,0.94364 0.5693,1.25673 0.54847,1.30294 0.40554,1.03349 0.51583,1.42056 0.48934,1.48629 0.47713,1.62389 0.36152,1.38923 0.261,1.12154 0.26009,1.25638 0.12132,0.65006 0.10558,0.60945 0.11425,0.71758 0.0898,0.61837 0.0872,0.66175 0.074,0.62573 0.0548,0.51435 0.10033,1.12005 0.0501,0.7081 0.0257,0.43596 0.0105,0.19966 0.009,0.18435 0.0102,0.23089 0.0113,0.29085 0.007,0.21467 0.008,0.2913 0.006,0.26699 0.002,0.13299 0.002,0.12387 0.002,0.12402 0.002,0.13913 7.9e-4,0.0951 5.3e-4,0.0775 2.7e-4,0.059 2.6e-4,0.0816 1.7e-4,0.0755 3e-5,0.0554"
       id="path3" />
    <path
       style="display:inline;vector-effect:non-scaling-stroke;fill:none;stroke:#000000;stroke-width:0.27269;stroke-dasharray:none;stroke-opacity:1;-inkscape-stroke:hairline"
       id="path4-0-5-29-1-0-9-9"
       transform="scale(-1)"
       sodipodi:type="arc"
       sodipodi:cx="-14.037983"
       sodipodi:cy="-11.76697"
       sodipodi:rx="1.5"
       sodipodi:ry="1.5"
       sodipodi:start="0"
       sodipodi:end="6.2825678"
       sodipodi:arc-type="arc"
       d="m -12.537983,-11.76697 a 1.5,1.5 0 0 1 -1.499768,1.5 1.5,1.5 0 0 1 -1.500232,-1.499537 1.5,1.5 0 0 1 1.499305,-1.500463 1.5,1.5 0 0 1 1.500695,1.499074"
       sodipodi:open="true" />
    <path
       style="display:inline;vector-effect:non-scaling-stroke;fill:none;stroke:#000000;stroke-width:0.264583;stroke-dasharray:none;stroke-opacity:1;-inkscape-stroke:hairline"
       id="path4-0-5-29-1-0-9-0-7"
       transform="scale(-1)"
       sodipodi:type="arc"
       sodipodi:cx="-14.082581"
       sodipodi:cy="-29.722374"
       sodipodi:rx="1.4554031"
       sodipodi:ry="1.4554031"
       sodipodi:start="0"
       sodipodi:end="6.2825678"
       sodipodi:arc-type="arc"
       d="m -12.627177,-29.722374 a 1.4554031,1.4554031 0 0 1 -1.455179,1.455403 1.4554031,1.4554031 0 0 1 -1.455628,-1.454954 1.4554031,1.4554031 0 0 1 1.454729,-1.455852 1.4554031,1.4554031 0 0 1 1.456077,1.454504"
       sodipodi:open="true" />
    <rect
       style="display:inline;vector-effect:non-scaling-stroke;fill:none;stroke:#000000;stroke-width:0.303612;stroke-dasharray:none;stroke-opacity:1;-inkscape-stroke:hairline"
       id="rect8-0-39"
       width="7.8109999"
       height="4.2341738"
       x="53.475075"
       y="2.566649" />
    <path
       style="display:inline;vector-effect:non-scaling-stroke;fill:none;stroke:#000000;stroke-width:0.27269;stroke-dasharray:none;stroke-opacity:1;-inkscape-stroke:hairline"
       id="path4-0-5-29-1-0-9-9-7-1-1-1"
       transform="scale(-1)"
       sodipodi:type="arc"
       sodipodi:cx="-57.379719"
       sodipodi:cy="-4.684"
       sodipodi:rx="1.5"
       sodipodi:ry="1.5"
       sodipodi:start="0"
       sodipodi:end="6.2825678"
       sodipodi:arc-type="arc"
       d="m -55.879719,-4.684 a 1.5,1.5 0 0 1 -1.499768,1.5 1.5,1.5 0 0 1 -1.500232,-1.4995369 1.5,1.5 0 0 1 1.499306,-1.500463 1.5,1.5 0 0 1 1.500694,1.4990736"
       sodipodi:open="true" />
    <rect
       style="vector-effect:non-scaling-stroke;fill:none;stroke:#000000;stroke-width:0.264583;stroke-dasharray:none;stroke-dashoffset:0.793751;stroke-opacity:1;-inkscape-stroke:hairline"
       id="rect12"
       width="23.26754"
       height="18.096977"
       x="24.638296"
       y="-185.15868"
       transform="rotate(90)" />
    <path
       style="display:inline;vector-effect:non-scaling-stroke;fill:none;stroke:#000000;stroke-width:0.264583;stroke-dasharray:none;stroke-opacity:1;-inkscape-stroke:hairline"
       id="path4-0-5-29-1-0-9-9-7-1-8-1"
       transform="rotate(-90)"
       sodipodi:type="arc"
       sodipodi:cx="-24.214178"
       sodipodi:cy="163.6221"
       sodipodi:rx="1.4554031"
       sodipodi:ry="1.4554031"
       sodipodi:start="0"
       sodipodi:end="6.2825678"
       sodipodi:arc-type="arc"
       d="m -22.758775,163.6221 a 1.4554031,1.4554031 0 0 1 -1.455178,1.4554 1.4554031,1.4554031 0 0 1 -1.455628,-1.45495 1.4554031,1.4554031 0 0 1 1.454729,-1.45585 1.4554031,1.4554031 0 0 1 1.456077,1.4545"
       sodipodi:open="true" />
    <path
       style="display:inline;vector-effect:non-scaling-stroke;fill:none;stroke:#000000;stroke-width:0.264583;stroke-dasharray:none;stroke-opacity:1;-inkscape-stroke:hairline"
       id="path4-0-5-29-1-0-9-9-7-1-8-1-8"
       transform="rotate(-90)"
       sodipodi:type="arc"
       sodipodi:cx="-48.087761"
       sodipodi:cy="163.6221"
       sodipodi:rx="1.4554031"
       sodipodi:ry="1.4554031"
       sodipodi:start="0"
       sodipodi:end="6.2825678"
       sodipodi:arc-type="arc"
       d="m -46.632358,163.6221 a 1.4554031,1.4554031 0 0 1 -1.455178,1.4554 1.4554031,1.4554031 0 0 1 -1.455628,-1.45495 1.4554031,1.4554031 0 0 1 1.454729,-1.45585 1.4554031,1.4554031 0 0 1 1.456077,1.4545"
       sodipodi:open="true" />
    <path
       style="display:inline;vector-effect:non-scaling-stroke;fill:none;stroke:#000000;stroke-width:0.264583;stroke-dasharray:none;stroke-opacity:1;-inkscape-stroke:hairline"
       id="path4-0-5-29-1-0-9-9-7-1-8-1-4"
       transform="rotate(-90)"
       sodipodi:type="arc"
       sodipodi:cx="-24.256369"
       sodipodi:cy="188.6581"
       sodipodi:rx="1.4554031"
       sodipodi:ry="1.4554031"
       sodipodi:start="0"
       sodipodi:end="6.2825678"
       sodipodi:arc-type="arc"
       d="m -22.800966,188.6581 a 1.4554031,1.4554031 0 0 1 -1.455178,1.4554 1.4554031,1.4554031 0 0 1 -1.455628,-1.45495 1.4554031,1.4554031 0 0 1 1.454729,-1.45586 1.4554031,1.4554031 0 0 1 1.456077,1.45451"
       sodipodi:open="true" />
    <path
       style="display:inline;vector-effect:non-scaling-stroke;fill:none;stroke:#000000;stroke-width:0.264583;stroke-dasharray:none;stroke-opacity:1;-inkscape-stroke:hairline"
       id="path4-0-5-29-1-0-9-9-7-1-8-1-0"
       transform="rotate(-90)"
       sodipodi:type="arc"
       sodipodi:cx="-48.088226"
       sodipodi:cy="188.6581"
       sodipodi:rx="1.4554031"
       sodipodi:ry="1.4554031"
       sodipodi:start="0"
       sodipodi:end="6.2825678"
       sodipodi:arc-type="arc"
       d="m -46.632823,188.6581 a 1.4554031,1.4554031 0 0 1 -1.455179,1.4554 1.4554031,1.4554031 0 0 1 -1.455627,-1.45495 1.4554031,1.4554031 0 0 1 1.454729,-1.45586 1.4554031,1.4554031 0 0 1 1.456076,1.45451"
       sodipodi:open="true" />
    <path
       style="vector-effect:non-scaling-stroke;fill:none;stroke:#000000;stroke-width:0.264583;stroke-dasharray:none;stroke-dashoffset:3;stroke-opacity:1;-inkscape-stroke:hairline"
       d="m 19.92254,246.80432 c -4e-6,0 0.0253,0.0182 0.02531,0.0182 4e-6,0 -0.0253,-0.0182 -0.02531,-0.0182 z"
       id="path19"
       inkscape:path-effect="#path-effect20"
       inkscape:original-d="m 19.897234,246.78612 c 0.0253,0.0182 0.05061,0.0364 0.07592,0.0546 -0.0253,-0.0182 -0.05061,-0.0364 -0.07592,-0.0546 z"
       transform="translate(143.82907,-162.94899)" />
    <path
       style="vector-effect:non-scaling-stroke;fill:none;stroke:#000000;stroke-width:0.264583;stroke-dasharray:none;stroke-dashoffset:3;stroke-opacity:1;-inkscape-stroke:hairline"
       d="m 17.855,242.66837 c 0,-0.0916 0,-0.18327 0.0038,-0.28233 0.0038,-0.0991 0.01142,-0.20555 0.01965,-0.29814 0.0082,-0.0926 0.01705,-0.17126 0.026,-0.24075 0.009,-0.0695 0.01802,-0.12974 0.02792,-0.18903 0.0099,-0.0593 0.02064,-0.11767 0.03134,-0.17169 0.01071,-0.054 0.02141,-0.10382 0.03179,-0.14947 0.01037,-0.0457 0.02043,-0.0873 0.03115,-0.12933 0.01071,-0.0421 0.02209,-0.0847 0.03989,-0.14569 0.0178,-0.061 0.04202,-0.14042 0.06594,-0.21364 0.02392,-0.0732 0.04751,-0.14018 0.07416,-0.21076 0.02666,-0.0706 0.05634,-0.14469 0.08617,-0.21492 0.02983,-0.0702 0.05977,-0.13654 0.08747,-0.19529 0.0277,-0.0588 0.05311,-0.10986 0.08829,-0.17608 0.03518,-0.0662 0.08009,-0.14744 0.117093,-0.21187 0.03701,-0.0644 0.0661,-0.11203 0.09564,-0.15864 0.02954,-0.0466 0.05956,-0.0923 0.07881,-0.12128 0.01925,-0.029 0.02778,-0.0414 0.04842,-0.0703 0.02065,-0.029 0.05345,-0.0746 0.08593,-0.11819 0.03248,-0.0436 0.06469,-0.0854 0.09675,-0.12568 0.03206,-0.0403 0.06405,-0.0791 0.09965,-0.12081 0.0356,-0.0417 0.07485,-0.0862 0.117399,-0.13243 0.04254,-0.0462 0.0883,-0.0942 0.138301,-0.14408 0.05,-0.0499 0.104169,-0.10173 0.156244,-0.14945 0.05208,-0.0477 0.102028,-0.0913 0.148039,-0.13003 0.04601,-0.0387 0.08812,-0.0726 0.13204,-0.10662 0.04392,-0.034 0.08964,-0.0681 0.145169,-0.10724 0.05553,-0.0392 0.120862,-0.0833 0.175577,-0.11897 0.05471,-0.0356 0.09884,-0.0627 0.14886,-0.0918 0.05002,-0.0292 0.105968,-0.0605 0.157617,-0.0881 0.05165,-0.0276 0.09899,-0.0516 0.142172,-0.0727 0.04318,-0.0211 0.08226,-0.0392 0.129549,-0.06 0.04728,-0.0208 0.102789,-0.0441 0.158326,-0.0661 0.05554,-0.022 0.111144,-0.0426 0.167135,-0.0619 0.05599,-0.0194 0.112364,-0.0375 0.166543,-0.0538 0.05418,-0.0163 0.106219,-0.0307 0.160361,-0.0445 0.05414,-0.0138 0.110429,-0.0269 0.155658,-0.0369 0.04523,-0.01 0.07933,-0.0167 0.115176,-0.0233 0.03585,-0.007 0.07354,-0.0129 0.110201,-0.0186 0.03666,-0.006 0.07239,-0.0107 0.105393,-0.015 0.033,-0.004 0.06318,-0.008 0.09978,-0.0114 0.03659,-0.004 0.07956,-0.007 0.121064,-0.0105 0.0415,-0.003 0.08165,-0.005 0.1318,-0.007 0.05015,-0.002 0.110364,-0.003 0.170565,-0.005"
       id="path24"
       sodipodi:nodetypes="cccccccccccccccccccccccccccccccccccccccccccc"
       transform="rotate(90,155.92489,159.08547)"
       inkscape:original-d="m 17.855,242.66837 c 0,-0.0916 0,-0.18327 0,-0.27491 0.0076,-0.10649 0.01523,-0.21297 0.02285,-0.31946 0.0088,-0.0787 0.01766,-0.15736 0.02648,-0.23604 0.0091,-0.0603 0.01815,-0.12055 0.02722,-0.18082 0.01073,-0.0583 0.02146,-0.11669 0.03219,-0.17503 0.01069,-0.0497 0.02139,-0.0995 0.03208,-0.14921 0.01006,-0.0416 0.02011,-0.0832 0.03017,-0.12474 0.01137,-0.0426 0.02275,-0.0852 0.03412,-0.12774 0.02423,-0.0795 0.04846,-0.1589 0.07269,-0.23835 0.0236,-0.067 0.04719,-0.13395 0.07079,-0.20092 0.0297,-0.0742 0.05941,-0.1483 0.08911,-0.22246 0.02995,-0.0663 0.05989,-0.13261 0.08984,-0.19892 0.02543,-0.0512 0.05086,-0.1023 0.07629,-0.15345 0.04492,-0.0813 0.08984,-0.16251 0.13476,-0.24376 0.0291,-0.0476 0.0582,-0.0952 0.0873,-0.14283 0.02999,-0.0456 0.05997,-0.0913 0.08996,-0.13688 0.0085,-0.0124 0.01703,-0.0248 0.02554,-0.0371 0.0328,-0.0456 0.0656,-0.0912 0.0984,-0.13675 0.03219,-0.0417 0.06437,-0.0835 0.09656,-0.12522 0.03196,-0.0388 0.06392,-0.0777 0.09588,-0.1165 0.03926,-0.0445 0.07853,-0.089 0.11779,-0.13356 0.04578,-0.048 0.09156,-0.0959 0.137338,-0.14383 0.0542,-0.0519 0.108395,-0.1037 0.162593,-0.15555 0.04994,-0.0436 0.09988,-0.0872 0.149816,-0.13072 0.04211,-0.0339 0.08422,-0.0678 0.126336,-0.1017 0.04572,-0.0341 0.09144,-0.0682 0.137157,-0.10228 0.06535,-0.0442 0.130687,-0.0884 0.196031,-0.13263 0.04409,-0.027 0.08819,-0.0541 0.132282,-0.0811 0.05596,-0.0313 0.111908,-0.0626 0.167862,-0.0939 0.04733,-0.024 0.09466,-0.048 0.141993,-0.0719 0.03908,-0.0181 0.07815,-0.0363 0.11723,-0.0545 0.05549,-0.0233 0.11097,-0.0467 0.166455,-0.07 0.0556,-0.0206 0.111208,-0.0412 0.166811,-0.0618 0.05637,-0.0182 0.112733,-0.0364 0.169099,-0.0545 0.05202,-0.0144 0.104042,-0.0289 0.156062,-0.0433 0.05628,-0.0131 0.112552,-0.0263 0.168835,-0.0394 0.03414,-0.007 0.06827,-0.0136 0.102407,-0.0203 0.03763,-0.006 0.07525,-0.0128 0.112881,-0.0191 0.03571,-0.005 0.07143,-0.0101 0.107141,-0.0151 0.03024,-0.004 0.06048,-0.007 0.09071,-0.0105 0.04294,-0.004 0.08589,-0.008 0.128831,-0.0114 0.04012,-0.002 0.08023,-0.005 0.120343,-0.007 0.06021,-10e-4 0.120411,-0.003 0.180619,-0.004"
       inkscape:path-effect="#path-effect25" />
    <path
       style="vector-effect:non-scaling-stroke;fill:none;stroke:#000000;stroke-width:0.264583;stroke-dasharray:none;stroke-dashoffset:3;stroke-opacity:1;-inkscape-stroke:hairline"
       d="m 77.441175,25.504433 c 0,3.03736 0,6.07472 0,9.11208 3.33751,0 10.01231,0 10.01231,0 v 3.1533 h -10.01234 v 8.938495"
       id="path25" />
    <path
       style="vector-effect:non-scaling-stroke;fill:none;stroke:#000000;stroke-width:0.264583;stroke-dasharray:none;stroke-dashoffset:3;stroke-opacity:1;-inkscape-stroke:hairline"
       d="m 77.441145,46.708308 -0.002,0.12519 -0.007,0.14894 -0.0148,0.16477 -0.0206,0.15562 -0.0264,0.157 -0.0302,0.14232 -0.0573,0.22199 -0.0622,0.19677 -0.0616,0.16733 -0.0683,0.16382 -0.0745,0.15927 -0.0842,0.16195 -0.0981,0.16999 -0.0131,0.0214 -0.10536,0.16287 -0.0978,0.1384 -0.12406,0.1608 -0.14372,0.16924 -0.10948,0.11852 -0.12968,0.13034 -0.12241,0.11421 -0.13206,0.11464 -0.18142,0.14457 -0.13523,0.099 -0.15342,0.1042 -0.11835,0.0749 -0.11131,0.0664 -0.22578,0.12332 v 0 l -0.22785,0.11029 -0.19641,0.0845 -0.2043,0.0782 -0.19334,0.0655 -0.201,0.0596 -0.16909,0.0437 -0.10423,0.0241 -0.0654,0.014 -0.0895,0.0179 -0.10854,0.0197 -0.13545,0.0214 -0.12785,0.0171 -0.13862,0.0152 -0.11649,0.01 -0.13419,0.009 -0.18894,0.007 h -0.0292 -0.15473"
       id="path26"
       sodipodi:nodetypes="cccccccccccccccccccccccccccccccccccccccccccccccc" />
    <path
       style="vector-effect:non-scaling-stroke;fill:none;stroke:#000000;stroke-width:0.264583;stroke-dasharray:none;stroke-dashoffset:3;stroke-opacity:1;-inkscape-stroke:hairline"
       d="m 72.341985,21.015583 v -9.8e-4 -0.001 -3e-5 L 65.066,21.014 V 6.184 l 7.276325,1.471e-4 29.728135,14.8317689 44.00024,-3.49e-4 V 6.1842078 h 60.06 V 66.244237 h -60.06 V 51.280528 H 102.38873 L 72.409235,66.244237 65.066,66.244 V 51.183268 l 7.279635,1.9e-4"
       id="path27"
       sodipodi:nodetypes="ccccccccccccccccccc" />
    <path
       style="display:inline;vector-effect:non-scaling-stroke;fill:none;stroke:#000000;stroke-width:0.264583;stroke-dasharray:none;stroke-opacity:1;-inkscape-stroke:hairline"
       id="path4-0-5-29-1-0-9-9-7-1-8-7-6"
       transform="scale(-1)"
       sodipodi:type="arc"
       sodipodi:cx="-67.467445"
       sodipodi:cy="-13.869466"
       sodipodi:rx="1.4554031"
       sodipodi:ry="1.4554031"
       sodipodi:start="0"
       sodipodi:end="6.2825678"
       sodipodi:arc-type="arc"
       d="m -66.012042,-13.869466 a 1.4554031,1.4554031 0 0 1 -1.455179,1.455403 1.4554031,1.4554031 0 0 1 -1.455627,-1.454953 1.4554031,1.4554031 0 0 1 1.454729,-1.455853 1.4554031,1.4554031 0 0 1 1.456076,1.454504"
       sodipodi:open="true" />
    <path
       style="display:inline;vector-effect:non-scaling-stroke;fill:none;stroke:#000000;stroke-width:0.454484;stroke-dasharray:none;stroke-opacity:1;-inkscape-stroke:hairline"
       id="path4-0-5-29-1-0-9-9-7-1-8-7-6-0"
       transform="scale(-1)"
       sodipodi:type="arc"
       sodipodi:cx="-109.096"
       sodipodi:cy="-133.68449"
       sodipodi:rx="2.5"
       sodipodi:ry="2.5"
       sodipodi:start="0"
       sodipodi:end="6.2825678"
       sodipodi:arc-type="arc"
       d="m -106.596,-133.68449 a 2.5,2.5 0 0 1 -2.49961,2.5 2.5,2.5 0 0 1 -2.50039,-2.49923 2.5,2.5 0 0 1 2.49884,-2.50077 2.5,2.5 0 0 1 2.50116,2.49845"
       sodipodi:open="true" />
    <path
       style="vector-effect:non-scaling-stroke;fill:none;stroke:#000000;stroke-width:0.264583;stroke-dasharray:none;stroke-dashoffset:3;stroke-opacity:1;-inkscape-stroke:hairline"
       d="m 199.42037,104.55088 -6.41133,-30.04114 h -13.3787 v 14.80212 l -3.16224,-0.0147 V 74.50972 h -13.37871 l -6.551,30.04116 h 42.88198"
       id="path16-3"
       sodipodi:nodetypes="ccccccccc" />
    <path
       style="display:inline;vector-effect:non-scaling-stroke;fill:none;stroke:#000000;stroke-width:0.454484;stroke-dasharray:none;stroke-opacity:1;-inkscape-stroke:hairline"
       id="path4-0-5-29-1-0-9-9-7-1-8-7-6-0-8"
       transform="scale(-1)"
       sodipodi:type="arc"
       sodipodi:cx="-147.09599"
       sodipodi:cy="-133.68449"
       sodipodi:rx="2.5"
       sodipodi:ry="2.5"
       sodipodi:start="0"
       sodipodi:end="6.2825678"
       sodipodi:arc-type="arc"
       d="m -144.59599,-133.68449 a 2.5,2.5 0 0 1 -2.49962,2.5 2.5,2.5 0 0 1 -2.50038,-2.49923 2.5,2.5 0 0 1 2.49884,-2.50077 2.5,2.5 0 0 1 2.50116,2.49845"
       sodipodi:open="true" />
    <path
       style="display:inline;vector-effect:non-scaling-stroke;fill:none;stroke:#000000;stroke-width:0.454484;stroke-dasharray:none;stroke-opacity:1;-inkscape-stroke:hairline"
       id="path4-0-5-29-1-0-9-9-7-1-8-7-6-0-6"
       transform="scale(-1)"
       sodipodi:type="arc"
       sodipodi:cx="-15.32167"
       sodipodi:cy="-74.084351"
       sodipodi:rx="2.5"
       sodipodi:ry="2.5"
       sodipodi:start="0"
       sodipodi:end="6.2825678"
       sodipodi:arc-type="arc"
       d="m -12.82167,-74.084351 a 2.5,2.5 0 0 1 -2.499614,2.5 2.5,2.5 0 0 1 -2.500385,-2.499228 2.5,2.5 0 0 1 2.498842,-2.500771 2.5,2.5 0 0 1 2.501157,2.498456"
       sodipodi:open="true" />
    <path
       style="vector-effect:non-scaling-stroke;fill:none;stroke:#000000;stroke-width:0.264583;stroke-dashoffset:3;-inkscape-stroke:hairline"
       d="m 4.8213152,73.681942 29.4044528,-22.3108 30.24053,23.3519 -9.99963,6.39381 -39.645,4.8e-4 z"
       id="path5-5"
       sodipodi:nodetypes="cccccc" />
    <path
       style="display:inline;vector-effect:non-scaling-stroke;fill:none;stroke:#000000;stroke-width:0.454484;stroke-dasharray:none;stroke-opacity:1;-inkscape-stroke:hairline"
       id="path4-0-5-29-1-0-9-9-7-1-8-7-6-0-8-9"
       transform="scale(-1)"
       sodipodi:type="arc"
       sodipodi:cx="-53.321663"
       sodipodi:cy="-74.084351"
       sodipodi:rx="2.5"
       sodipodi:ry="2.5"
       sodipodi:start="0"
       sodipodi:end="6.2825678"
       sodipodi:arc-type="arc"
       d="m -50.821663,-74.084351 a 2.5,2.5 0 0 1 -2.499614,2.5 2.5,2.5 0 0 1 -2.500386,-2.499228 2.5,2.5 0 0 1 2.498842,-2.500771 2.5,2.5 0 0 1 2.501158,2.498456"
       sodipodi:open="true" />
    <path
       style="display:inline;vector-effect:non-scaling-stroke;fill:none;stroke:#000000;stroke-width:0.454484;stroke-dasharray:none;stroke-opacity:1;-inkscape-stroke:hairline"
       id="path4-0-5-29-1-0-9-9-7-1-8-7-6-0-1"
       transform="scale(-1)"
       sodipodi:type="arc"
       sodipodi:cx="-97.62175"
       sodipodi:cy="-78.617332"
       sodipodi:rx="2.5"
       sodipodi:ry="2.5"
       sodipodi:start="0"
       sodipodi:end="6.2825678"
       sodipodi:arc-type="arc"
       d="m -95.12175,-78.617332 a 2.5,2.5 0 0 1 -2.499614,2.5 2.5,2.5 0 0 1 -2.500386,-2.499229 2.5,2.5 0 0 1 2.498842,-2.500771 2.5,2.5 0 0 1 2.501158,2.498456"
       sodipodi:open="true" />
    <path
       style="vector-effect:non-scaling-stroke;fill:none;stroke:#000000;stroke-width:0.264583;stroke-dashoffset:3;-inkscape-stroke:hairline"
       d="m 87.121402,78.214932 29.404448,-22.3108 30.24053,23.3519 -9.99963,6.39381 -39.644995,4.8e-4 z"
       id="path5-7"
       sodipodi:nodetypes="cccccc" />
    <path
       style="display:inline;vector-effect:non-scaling-stroke;fill:none;stroke:#000000;stroke-width:0.454484;stroke-dasharray:none;stroke-opacity:1;-inkscape-stroke:hairline"
       id="path4-0-5-29-1-0-9-9-7-1-8-7-6-0-8-5"
       transform="scale(-1)"
       sodipodi:type="arc"
       sodipodi:cx="-135.62175"
       sodipodi:cy="-78.617332"
       sodipodi:rx="2.5"
       sodipodi:ry="2.5"
       sodipodi:start="0"
       sodipodi:end="6.2825678"
       sodipodi:arc-type="arc"
       d="m -133.12175,-78.617332 a 2.5,2.5 0 0 1 -2.49961,2.5 2.5,2.5 0 0 1 -2.50039,-2.499229 2.5,2.5 0 0 1 2.49884,-2.500771 2.5,2.5 0 0 1 2.50116,2.498456"
       sodipodi:open="true" />
    <path
       style="display:inline;vector-effect:non-scaling-stroke;fill:none;stroke:#000000;stroke-width:0.454484;stroke-dasharray:none;stroke-opacity:1;-inkscape-stroke:hairline"
       id="path4-0-5-29-1-0-9-9-7-1-8-7-6-0-88"
       transform="scale(-1)"
       sodipodi:type="arc"
       sodipodi:cx="-55.571251"
       sodipodi:cy="-103.36352"
       sodipodi:rx="2.5"
       sodipodi:ry="2.5"
       sodipodi:start="0"
       sodipodi:end="6.2825678"
       sodipodi:arc-type="arc"
       d="m -53.071251,-103.36352 a 2.5,2.5 0 0 1 -2.499614,2.5 2.5,2.5 0 0 1 -2.500386,-2.49923 2.5,2.5 0 0 1 2.498842,-2.50077 2.5,2.5 0 0 1 2.501158,2.49846"
       sodipodi:open="true" />
    <path
       style="vector-effect:non-scaling-stroke;fill:none;stroke:#000000;stroke-width:0.264583;stroke-dashoffset:3;-inkscape-stroke:hairline"
       d="m 45.070898,102.96111 29.404453,-22.310796 30.240529,23.351896 -9.999629,6.39381 -39.645,4.8e-4 z"
       id="path5-3"
       sodipodi:nodetypes="cccccc" />
    <path
       style="display:inline;vector-effect:non-scaling-stroke;fill:none;stroke:#000000;stroke-width:0.454484;stroke-dasharray:none;stroke-opacity:1;-inkscape-stroke:hairline"
       id="path4-0-5-29-1-0-9-9-7-1-8-7-6-0-8-52"
       transform="scale(-1)"
       sodipodi:type="arc"
       sodipodi:cx="-93.571243"
       sodipodi:cy="-103.36352"
       sodipodi:rx="2.5"
       sodipodi:ry="2.5"
       sodipodi:start="0"
       sodipodi:end="6.2825678"
       sodipodi:arc-type="arc"
       d="m -91.071243,-103.36352 a 2.5,2.5 0 0 1 -2.499614,2.5 2.5,2.5 0 0 1 -2.500386,-2.49923 2.5,2.5 0 0 1 2.498842,-2.50077 2.5,2.5 0 0 1 2.501157,2.49846"
       sodipodi:open="true" />
    <path
       style="display:inline;vector-effect:non-scaling-stroke;fill:none;stroke:#000000;stroke-width:0.454484;stroke-dasharray:none;stroke-opacity:1;-inkscape-stroke:hairline"
       id="path4-0-5-29-1-0-9-9-7-1-8-7-6-0-7"
       transform="scale(-1)"
       sodipodi:type="arc"
       sodipodi:cx="-15.321669"
       sodipodi:cy="-127.31183"
       sodipodi:rx="2.5"
       sodipodi:ry="2.5"
       sodipodi:start="0"
       sodipodi:end="6.2825678"
       sodipodi:arc-type="arc"
       d="m -12.821669,-127.31183 a 2.5,2.5 0 0 1 -2.499614,2.5 2.5,2.5 0 0 1 -2.500386,-2.49923 2.5,2.5 0 0 1 2.498843,-2.50077 2.5,2.5 0 0 1 2.501157,2.49846"
       sodipodi:open="true" />
    <path
       style="vector-effect:non-scaling-stroke;fill:none;stroke:#000000;stroke-width:0.264583;stroke-dashoffset:3;-inkscape-stroke:hairline"
       d="m 4.8213151,126.90942 29.4044529,-22.3108 30.24053,23.3519 -9.99963,6.39381 -39.645,4.8e-4 z"
       id="path5-8"
       sodipodi:nodetypes="cccccc" />
    <path
       style="display:inline;vector-effect:non-scaling-stroke;fill:none;stroke:#000000;stroke-width:0.454484;stroke-dasharray:none;stroke-opacity:1;-inkscape-stroke:hairline"
       id="path4-0-5-29-1-0-9-9-7-1-8-7-6-0-8-4"
       transform="scale(-1)"
       sodipodi:type="arc"
       sodipodi:cx="-53.321659"
       sodipodi:cy="-127.31183"
       sodipodi:rx="2.5"
       sodipodi:ry="2.5"
       sodipodi:start="0"
       sodipodi:end="6.2825678"
       sodipodi:arc-type="arc"
       d="m -50.821659,-127.31183 a 2.5,2.5 0 0 1 -2.499614,2.5 2.5,2.5 0 0 1 -2.500386,-2.49923 2.5,2.5 0 0 1 2.498842,-2.50077 2.5,2.5 0 0 1 2.501157,2.49846"
       sodipodi:open="true" />
    <path
       style="display:inline;vector-effect:non-scaling-stroke;fill:none;stroke:#000000;stroke-width:0.454484;stroke-dasharray:none;stroke-opacity:1;-inkscape-stroke:hairline"
       id="path4-0-5-29-1-0-9-9-7-1-8-7-6-0-87"
       transform="rotate(-90)"
       sodipodi:type="arc"
       sodipodi:cx="-147.96143"
       sodipodi:cy="9.9815617"
       sodipodi:rx="2.5"
       sodipodi:ry="2.5"
       sodipodi:start="0"
       sodipodi:end="6.2825678"
       sodipodi:arc-type="arc"
       d="m -145.46143,9.9815617 a 2.5,2.5 0 0 1 -2.49961,2.5000003 2.5,2.5 0 0 1 -2.50039,-2.4992285 2.5,2.5 0 0 1 2.49885,-2.5007716 2.5,2.5 0 0 1 2.50115,2.498456"
       sodipodi:open="true" />
    <path
       style="vector-effect:non-scaling-stroke;fill:none;stroke:#000000;stroke-width:0.264583;stroke-dashoffset:3;-inkscape-stroke:hairline"
       d="m 10.383964,137.46106 22.3108,29.40446 -23.3518999,30.24053 -6.39381,-9.99963 -4.81e-4,-39.645 z"
       id="path5-87"
       sodipodi:nodetypes="cccccc" />
    <path
       style="display:inline;vector-effect:non-scaling-stroke;fill:none;stroke:#000000;stroke-width:0.454484;stroke-dasharray:none;stroke-opacity:1;-inkscape-stroke:hairline"
       id="path4-0-5-29-1-0-9-9-7-1-8-7-6-0-8-7"
       transform="rotate(-90)"
       sodipodi:type="arc"
       sodipodi:cx="-185.96143"
       sodipodi:cy="9.9815617"
       sodipodi:rx="2.5"
       sodipodi:ry="2.5"
       sodipodi:start="0"
       sodipodi:end="6.2825678"
       sodipodi:arc-type="arc"
       d="m -183.46143,9.9815617 a 2.5,2.5 0 0 1 -2.49961,2.5000003 2.5,2.5 0 0 1 -2.50039,-2.4992285 2.5,2.5 0 0 1 2.49885,-2.5007716 2.5,2.5 0 0 1 2.50115,2.498456"
       sodipodi:open="true" />
    <path
       style="display:inline;vector-effect:non-scaling-stroke;fill:none;stroke:#000000;stroke-width:0.454484;stroke-dasharray:none;stroke-opacity:1;-inkscape-stroke:hairline"
       id="path4-0-5-29-1-0-9-9-7-1-8-7-6-0-2"
       sodipodi:type="arc"
       sodipodi:cx="214.32072"
       sodipodi:cy="-43.111282"
       sodipodi:rx="2.5"
       sodipodi:ry="2.5"
       sodipodi:start="0"
       sodipodi:end="6.2825678"
       sodipodi:arc-type="arc"
       d="m 216.82072,-43.111282 a 2.5,2.5 0 0 1 -2.49961,2.5 2.5,2.5 0 0 1 -2.50039,-2.499228 2.5,2.5 0 0 1 2.49885,-2.500772 2.5,2.5 0 0 1 2.50115,2.498456"
       sodipodi:open="true"
       transform="rotate(90)" />
    <path
       style="vector-effect:non-scaling-stroke;fill:none;stroke:#000000;stroke-width:0.264583;stroke-dashoffset:3;-inkscape-stroke:hairline"
       d="m 42.708879,224.82108 -22.3108,-29.40446 23.3519,-30.24053 6.39381,9.99963 4.8e-4,39.645 z"
       id="path5-9"
       sodipodi:nodetypes="cccccc" />
    <path
       style="display:inline;vector-effect:non-scaling-stroke;fill:none;stroke:#000000;stroke-width:0.454484;stroke-dasharray:none;stroke-opacity:1;-inkscape-stroke:hairline"
       id="path4-0-5-29-1-0-9-9-7-1-8-7-6-0-8-8"
       sodipodi:type="arc"
       sodipodi:cx="176.32074"
       sodipodi:cy="-43.111282"
       sodipodi:rx="2.5"
       sodipodi:ry="2.5"
       sodipodi:start="0"
       sodipodi:end="6.2825678"
       sodipodi:arc-type="arc"
       d="m 178.82074,-43.111282 a 2.5,2.5 0 0 1 -2.49961,2.5 2.5,2.5 0 0 1 -2.50039,-2.499228 2.5,2.5 0 0 1 2.49884,-2.500772 2.5,2.5 0 0 1 2.50116,2.498456"
       sodipodi:open="true"
       transform="rotate(90)" />
    <path
       style="display:inline;vector-effect:non-scaling-stroke;fill:none;stroke:#000000;stroke-width:0.454484;stroke-dasharray:none;stroke-opacity:1;-inkscape-stroke:hairline"
       id="path4-0-5-29-1-0-9-9-7-1-8-7-6-0-87-7"
       transform="rotate(-90)"
       sodipodi:type="arc"
       sodipodi:cx="-210.72267"
       sodipodi:cy="13.254325"
       sodipodi:rx="2.5"
       sodipodi:ry="2.5"
       sodipodi:start="0"
       sodipodi:end="6.2825678"
       sodipodi:arc-type="arc"
       d="m -208.22267,13.254325 a 2.5,2.5 0 0 1 -2.49962,2.5 2.5,2.5 0 0 1 -2.50038,-2.499228 2.5,2.5 0 0 1 2.49884,-2.500772 2.5,2.5 0 0 1 2.50116,2.498456"
       sodipodi:open="true" />
    <path
       style="vector-effect:non-scaling-stroke;fill:none;stroke:#000000;stroke-width:0.264583;stroke-dashoffset:3;-inkscape-stroke:hairline"
       d="m 13.656728,200.2223 22.3108,29.40446 -23.351899,30.24053 -6.3938105,-9.99963 -4.81e-4,-39.645 z"
       id="path5-87-1"
       sodipodi:nodetypes="cccccc" />
    <path
       style="display:inline;vector-effect:non-scaling-stroke;fill:none;stroke:#000000;stroke-width:0.454484;stroke-dasharray:none;stroke-opacity:1;-inkscape-stroke:hairline"
       id="path4-0-5-29-1-0-9-9-7-1-8-7-6-0-8-7-5"
       transform="rotate(-90)"
       sodipodi:type="arc"
       sodipodi:cx="-248.72267"
       sodipodi:cy="13.254325"
       sodipodi:rx="2.5"
       sodipodi:ry="2.5"
       sodipodi:start="0"
       sodipodi:end="6.2825678"
       sodipodi:arc-type="arc"
       d="m -246.22267,13.254325 a 2.5,2.5 0 0 1 -2.49962,2.5 2.5,2.5 0 0 1 -2.50038,-2.499228 2.5,2.5 0 0 1 2.49884,-2.500772 2.5,2.5 0 0 1 2.50116,2.498456"
       sodipodi:open="true" />
    <path
       style="display:inline;vector-effect:non-scaling-stroke;fill:none;stroke:#000000;stroke-width:0.264583;stroke-dasharray:none;stroke-opacity:1;-inkscape-stroke:hairline"
       id="path4-0-5-29-1-0-9-9-7-1-8-7-6-8"
       transform="scale(-1)"
       sodipodi:type="arc"
       sodipodi:cx="-67.4674"
       sodipodi:cy="-59.134571"
       sodipodi:rx="1.4554031"
       sodipodi:ry="1.4554031"
       sodipodi:start="0"
       sodipodi:end="6.2825678"
       sodipodi:arc-type="arc"
       d="m -66.011997,-59.134571 a 1.4554031,1.4554031 0 0 1 -1.455178,1.455403 1.4554031,1.4554031 0 0 1 -1.455628,-1.454954 1.4554031,1.4554031 0 0 1 1.454729,-1.455852 1.4554031,1.4554031 0 0 1 1.456077,1.454504"
       sodipodi:open="true" />
    <path
       style="vector-effect:non-scaling-stroke;fill:none;stroke:#000000;stroke-width:0.304733;stroke-dashoffset:3;-inkscape-stroke:hairline"
       d="M 8.1237247,2.2079385 H 19.952064 v 4.219381 l -1.993429,5.29e-4 -0.01577,22.9112315 -0.0049,0.143751 -0.0064,0.07414 -0.0093,0.07626 -0.01234,0.0779 -0.013,0.06708 -0.01417,0.06296 -0.01722,0.06693 -0.02247,0.07665 -0.02822,0.08441 -0.02788,0.07422 -0.02768,0.06699 -0.03917,0.08605 -0.03738,0.07471 -0.04506,0.08252 -0.03876,0.06562 -0.03754,0.05964 -0.04843,0.07206 -0.04956,0.06892 -0.06426,0.08318 -0.05618,0.06782 -0.06755,0.07637 -0.05477,0.05826 -0.09209,0.09153 -0.07397,0.06839 -0.06881,0.05998 -0.06561,0.05423 -0.06017,0.0474 -0.07796,0.05836 -0.08244,0.05825 -0.06698,0.0449 -0.09396,0.0596 -0.104464,0.06195 -0.09624,0.05336 -0.106533,0.05521 -0.09593,0.04648 -0.14851,0.06629 -0.13931,0.05638 -0.146338,0.05355 -0.159961,0.0523 -0.182818,0.05226 -0.167056,0.04113 -0.155266,0.0328 -0.148794,0.0267 -0.169481,0.02495 -0.191314,0.02135 -0.152392,0.01193 -0.08268,0.0046 -0.112781,0.0042 -0.0839,0.0016 -0.09129,1.96e-4 -0.116748,-0.0021 -0.141739,-0.006 -0.126657,-0.0085 -0.126604,-0.01161 -0.140926,-0.01659 -0.166062,-0.02461 -0.136815,-0.02447 -0.11948,-0.02455 -0.132388,-0.03079 -0.10201,-0.02638 -0.102235,-0.02881 -0.119136,-0.03668 -0.118671,-0.04 -0.116575,-0.04282 -0.158605,-0.06419 -0.106122,-0.04705 -0.08588,-0.04062 -0.09784,-0.04921 -0.1196,-0.06467 -0.125768,-0.07382 -0.09731,-0.0616 -0.09998,-0.06774 -0.08847,-0.06407 -0.09473,-0.07337 -0.09786,-0.08156 -0.09436,-0.08493 -0.05948,-0.05713 -0.06935,-0.07057 -0.07691,-0.08392 -0.05955,-0.06968 -0.06761,-0.08491 -0.06084,-0.08261 -0.05951,-0.08766 -0.05216,-0.08365 -0.0462,-0.08064 -0.03655,-0.06916 -0.0409,-0.08443 -0.03042,-0.06886 -0.03104,-0.07719 -0.02844,-0.07883 -0.03023,-0.09574 -0.02965,-0.112643 -0.01882,-0.08812 -0.01638,-0.09722 -0.0091,-0.07159 -0.0076,-0.08228 -0.0041,-0.07694 -0.0013,-0.07581 -6.56e-4,-22.9112865 -2.0105973,-5.29e-4 v -4.21932"
       id="path1"
       sodipodi:nodetypes="cccccccccccccccccccccccccccccccccccccccccccccccccccccccccccccccccccccccccccccccccccccccccccccccccccccccccc" />
    <path
       style="display:inline;vector-effect:non-scaling-stroke;fill:none;stroke:#000000;stroke-width:0.27269;stroke-dasharray:none;stroke-opacity:1;-inkscape-stroke:hairline"
       id="path4"
       transform="scale(-1)"
       sodipodi:type="arc"
       sodipodi:cx="-14.037983"
       sodipodi:cy="-11.76697"
       sodipodi:rx="1.5"
       sodipodi:ry="1.5"
       sodipodi:start="0"
       sodipodi:end="6.2825678"
       sodipodi:arc-type="arc"
       d="m -12.537983,-11.76697 a 1.5,1.5 0 0 1 -1.499768,1.5 1.5,1.5 0 0 1 -1.500232,-1.499537 1.5,1.5 0 0 1 1.499305,-1.500463 1.5,1.5 0 0 1 1.500695,1.499074"
       sodipodi:open="true" />
    <path
       style="display:inline;vector-effect:non-scaling-stroke;fill:none;stroke:#000000;stroke-width:0.264583;stroke-dasharray:none;stroke-opacity:1;-inkscape-stroke:hairline"
       id="path5"
       transform="scale(-1)"
       sodipodi:type="arc"
       sodipodi:cx="-14.082581"
       sodipodi:cy="-29.722374"
       sodipodi:rx="1.4554031"
       sodipodi:ry="1.4554031"
       sodipodi:start="0"
       sodipodi:end="6.2825678"
       sodipodi:arc-type="arc"
       d="m -12.627177,-29.722374 a 1.4554031,1.4554031 0 0 1 -1.455179,1.455403 1.4554031,1.4554031 0 0 1 -1.455628,-1.454954 1.4554031,1.4554031 0 0 1 1.454729,-1.455852 1.4554031,1.4554031 0 0 1 1.456077,1.454504"
       sodipodi:open="true" />
    <path
       style="vector-effect:non-scaling-stroke;fill:none;stroke:#000000;stroke-width:0.304733;stroke-dashoffset:3;-inkscape-stroke:hairline"
       d="M 8.1237247,2.2079385 H 19.952064 v 4.219381 l -1.993429,5.29e-4 -0.01577,22.9112315 -0.0049,0.143751 -0.0064,0.07414 -0.0093,0.07626 -0.01234,0.0779 -0.013,0.06708 -0.01417,0.06296 -0.01722,0.06693 -0.02247,0.07665 -0.02822,0.08441 -0.02788,0.07422 -0.02768,0.06699 -0.03917,0.08605 -0.03738,0.07471 -0.04506,0.08252 -0.03876,0.06562 -0.03754,0.05964 -0.04843,0.07206 -0.04956,0.06892 -0.06426,0.08318 -0.05618,0.06782 -0.06755,0.07637 -0.05477,0.05826 -0.09209,0.09153 -0.07397,0.06839 -0.06881,0.05998 -0.06561,0.05423 -0.06017,0.0474 -0.07796,0.05836 -0.08244,0.05825 -0.06698,0.0449 -0.09396,0.0596 -0.104464,0.06195 -0.09624,0.05336 -0.106533,0.05521 -0.09593,0.04648 -0.14851,0.06629 -0.13931,0.05638 -0.146338,0.05355 -0.159961,0.0523 -0.182818,0.05226 -0.167056,0.04113 -0.155266,0.0328 -0.148794,0.0267 -0.169481,0.02495 -0.191314,0.02135 -0.152392,0.01193 -0.08268,0.0046 -0.112781,0.0042 -0.0839,0.0016 -0.09129,1.96e-4 -0.116748,-0.0021 -0.141739,-0.006 -0.126657,-0.0085 -0.126604,-0.01161 -0.140926,-0.01659 -0.166062,-0.02461 -0.136815,-0.02447 -0.11948,-0.02455 -0.132388,-0.03079 -0.10201,-0.02638 -0.102235,-0.02881 -0.119136,-0.03668 -0.118671,-0.04 -0.116575,-0.04282 -0.158605,-0.06419 -0.106122,-0.04705 -0.08588,-0.04062 -0.09784,-0.04921 -0.1196,-0.06467 -0.125768,-0.07382 -0.09731,-0.0616 -0.09998,-0.06774 -0.08847,-0.06407 -0.09473,-0.07337 -0.09786,-0.08156 -0.09436,-0.08493 -0.05948,-0.05713 -0.06935,-0.07057 -0.07691,-0.08392 -0.05955,-0.06968 -0.06761,-0.08491 -0.06084,-0.08261 -0.05951,-0.08766 -0.05216,-0.08365 -0.0462,-0.08064 -0.03655,-0.06916 -0.0409,-0.08443 -0.03042,-0.06886 -0.03104,-0.07719 -0.02844,-0.07883 -0.03023,-0.09574 -0.02965,-0.112643 -0.01882,-0.08812 -0.01638,-0.09722 -0.0091,-0.07159 -0.0076,-0.08228 -0.0041,-0.07694 -0.0013,-0.07581 -6.56e-4,-22.9112865 -2.0105973,-5.29e-4 v -4.21932"
       id="path6"
       sodipodi:nodetypes="cccccccccccccccccccccccccccccccccccccccccccccccccccccccccccccccccccccccccccccccccccccccccccccccccccccccccc" />
    <path
       style="display:inline;vector-effect:non-scaling-stroke;fill:none;stroke:#000000;stroke-width:0.27269;stroke-dasharray:none;stroke-opacity:1;-inkscape-stroke:hairline"
       id="path4-0-5-29-1-0-9-9-5"
       transform="scale(-1)"
       sodipodi:type="arc"
       sodipodi:cx="-27.711859"
       sodipodi:cy="-11.76697"
       sodipodi:rx="1.5"
       sodipodi:ry="1.5"
       sodipodi:start="0"
       sodipodi:end="6.2825678"
       sodipodi:arc-type="arc"
       d="m -26.211859,-11.76697 a 1.5,1.5 0 0 1 -1.499768,1.5 1.5,1.5 0 0 1 -1.500232,-1.499537 1.5,1.5 0 0 1 1.499306,-1.500463 1.5,1.5 0 0 1 1.500694,1.499074"
       sodipodi:open="true" />
    <path
       style="display:inline;vector-effect:non-scaling-stroke;fill:none;stroke:#000000;stroke-width:0.264583;stroke-dasharray:none;stroke-opacity:1;-inkscape-stroke:hairline"
       id="path4-0-5-29-1-0-9-0-7-2"
       transform="scale(-1)"
       sodipodi:type="arc"
       sodipodi:cx="-27.756454"
       sodipodi:cy="-29.722374"
       sodipodi:rx="1.4554031"
       sodipodi:ry="1.4554031"
       sodipodi:start="0"
       sodipodi:end="6.2825678"
       sodipodi:arc-type="arc"
       d="m -26.301051,-29.722374 a 1.4554031,1.4554031 0 0 1 -1.455179,1.455403 1.4554031,1.4554031 0 0 1 -1.455627,-1.454954 1.4554031,1.4554031 0 0 1 1.454728,-1.455852 1.4554031,1.4554031 0 0 1 1.456077,1.454504"
       sodipodi:open="true" />
    <path
       style="vector-effect:non-scaling-stroke;fill:none;stroke:#000000;stroke-width:0.304733;stroke-dashoffset:3;-inkscape-stroke:hairline"
       d="M 21.7976,2.207939 H 33.62594 V 6.42732 l -1.993429,5.29e-4 -0.01577,22.911231 -0.0049,0.143751 -0.0064,0.07414 -0.0093,0.07626 -0.01234,0.0779 -0.013,0.06708 -0.01417,0.06296 -0.01722,0.06693 -0.02247,0.07665 -0.02822,0.08441 -0.02788,0.07422 -0.02768,0.06699 -0.03917,0.08605 -0.03738,0.07471 -0.04506,0.08252 -0.03876,0.06562 -0.03754,0.05964 -0.04843,0.07206 -0.04956,0.06892 -0.06426,0.08318 -0.05618,0.06782 -0.06755,0.07637 -0.05477,0.05826 -0.09209,0.09153 -0.07397,0.06839 -0.06881,0.05998 -0.06561,0.05423 -0.06017,0.0474 -0.07796,0.05836 -0.08244,0.05825 -0.06698,0.0449 -0.09396,0.0596 -0.104464,0.06195 -0.09624,0.05336 -0.106534,0.05521 -0.09593,0.04648 -0.14851,0.06629 -0.139309,0.05638 -0.146338,0.05355 -0.159961,0.0523 -0.182818,0.05226 -0.167056,0.04113 -0.155266,0.0328 -0.148794,0.0267 -0.169481,0.02495 -0.191315,0.02135 -0.152391,0.01193 -0.08268,0.0046 -0.112782,0.0042 -0.0839,0.0016 -0.09129,1.96e-4 -0.116747,-0.0021 -0.14174,-0.006 -0.126657,-0.0085 -0.126603,-0.01161 -0.140927,-0.01659 -0.166061,-0.02461 -0.136816,-0.02447 -0.11948,-0.02455 -0.132387,-0.03079 -0.10201,-0.02638 -0.102236,-0.02881 -0.119135,-0.03668 -0.118671,-0.04 -0.116576,-0.04282 -0.158605,-0.06419 -0.106122,-0.04705 -0.08588,-0.04062 -0.09784,-0.04921 -0.1196,-0.06467 -0.125768,-0.07382 -0.09731,-0.0616 -0.09998,-0.06774 -0.08847,-0.06407 -0.09473,-0.07337 -0.09786,-0.08156 -0.09436,-0.08493 -0.05948,-0.05713 -0.06935,-0.07057 -0.07691,-0.08392 -0.05955,-0.06968 -0.06761,-0.08491 -0.06083,-0.08261 -0.05951,-0.08766 -0.05216,-0.08365 -0.0462,-0.08064 -0.03655,-0.06916 -0.0409,-0.08443 -0.03042,-0.06886 -0.03104,-0.07719 -0.02844,-0.07883 -0.03023,-0.09574 -0.02965,-0.112643 -0.01882,-0.08812 -0.01638,-0.09722 -0.0092,-0.07159 -0.0076,-0.08228 -0.0041,-0.07694 -0.0013,-0.07581 -6.55e-4,-22.911287 -2.010598,-5.29e-4 v -4.21932"
       id="path1-2"
       sodipodi:nodetypes="cccccccccccccccccccccccccccccccccccccccccccccccccccccccccccccccccccccccccccccccccccccccccccccccccccccccccc" />
    <path
       style="display:inline;vector-effect:non-scaling-stroke;fill:none;stroke:#000000;stroke-width:0.27269;stroke-dasharray:none;stroke-opacity:1;-inkscape-stroke:hairline"
       id="path4-7"
       transform="scale(-1)"
       sodipodi:type="arc"
       sodipodi:cx="-27.711859"
       sodipodi:cy="-11.76697"
       sodipodi:rx="1.5"
       sodipodi:ry="1.5"
       sodipodi:start="0"
       sodipodi:end="6.2825678"
       sodipodi:arc-type="arc"
       d="m -26.211859,-11.76697 a 1.5,1.5 0 0 1 -1.499768,1.5 1.5,1.5 0 0 1 -1.500232,-1.499537 1.5,1.5 0 0 1 1.499306,-1.500463 1.5,1.5 0 0 1 1.500694,1.499074"
       sodipodi:open="true" />
    <path
       style="display:inline;vector-effect:non-scaling-stroke;fill:none;stroke:#000000;stroke-width:0.264583;stroke-dasharray:none;stroke-opacity:1;-inkscape-stroke:hairline"
       id="path5-1"
       transform="scale(-1)"
       sodipodi:type="arc"
       sodipodi:cx="-27.756454"
       sodipodi:cy="-29.722374"
       sodipodi:rx="1.4554031"
       sodipodi:ry="1.4554031"
       sodipodi:start="0"
       sodipodi:end="6.2825678"
       sodipodi:arc-type="arc"
       d="m -26.301051,-29.722374 a 1.4554031,1.4554031 0 0 1 -1.455179,1.455403 1.4554031,1.4554031 0 0 1 -1.455627,-1.454954 1.4554031,1.4554031 0 0 1 1.454728,-1.455852 1.4554031,1.4554031 0 0 1 1.456077,1.454504"
       sodipodi:open="true" />
    <path
       style="vector-effect:non-scaling-stroke;fill:none;stroke:#000000;stroke-width:0.304733;stroke-dashoffset:3;-inkscape-stroke:hairline"
       d="M 21.7976,2.207939 H 33.62594 V 6.42732 l -1.993429,5.29e-4 -0.01577,22.911231 -0.0049,0.143751 -0.0064,0.07414 -0.0093,0.07626 -0.01234,0.0779 -0.013,0.06708 -0.01417,0.06296 -0.01722,0.06693 -0.02247,0.07665 -0.02822,0.08441 -0.02788,0.07422 -0.02768,0.06699 -0.03917,0.08605 -0.03738,0.07471 -0.04506,0.08252 -0.03876,0.06562 -0.03754,0.05964 -0.04843,0.07206 -0.04956,0.06892 -0.06426,0.08318 -0.05618,0.06782 -0.06755,0.07637 -0.05477,0.05826 -0.09209,0.09153 -0.07397,0.06839 -0.06881,0.05998 -0.06561,0.05423 -0.06017,0.0474 -0.07796,0.05836 -0.08244,0.05825 -0.06698,0.0449 -0.09396,0.0596 -0.104464,0.06195 -0.09624,0.05336 -0.106534,0.05521 -0.09593,0.04648 -0.14851,0.06629 -0.139309,0.05638 -0.146338,0.05355 -0.159961,0.0523 -0.182818,0.05226 -0.167056,0.04113 -0.155266,0.0328 -0.148794,0.0267 -0.169481,0.02495 -0.191315,0.02135 -0.152391,0.01193 -0.08268,0.0046 -0.112782,0.0042 -0.0839,0.0016 -0.09129,1.96e-4 -0.116747,-0.0021 -0.14174,-0.006 -0.126657,-0.0085 -0.126603,-0.01161 -0.140927,-0.01659 -0.166061,-0.02461 -0.136816,-0.02447 -0.11948,-0.02455 -0.132387,-0.03079 -0.10201,-0.02638 -0.102236,-0.02881 -0.119135,-0.03668 -0.118671,-0.04 -0.116576,-0.04282 -0.158605,-0.06419 -0.106122,-0.04705 -0.08588,-0.04062 -0.09784,-0.04921 -0.1196,-0.06467 -0.125768,-0.07382 -0.09731,-0.0616 -0.09998,-0.06774 -0.08847,-0.06407 -0.09473,-0.07337 -0.09786,-0.08156 -0.09436,-0.08493 -0.05948,-0.05713 -0.06935,-0.07057 -0.07691,-0.08392 -0.05955,-0.06968 -0.06761,-0.08491 -0.06083,-0.08261 -0.05951,-0.08766 -0.05216,-0.08365 -0.0462,-0.08064 -0.03655,-0.06916 -0.0409,-0.08443 -0.03042,-0.06886 -0.03104,-0.07719 -0.02844,-0.07883 -0.03023,-0.09574 -0.02965,-0.112643 -0.01882,-0.08812 -0.01638,-0.09722 -0.0092,-0.07159 -0.0076,-0.08228 -0.0041,-0.07694 -0.0013,-0.07581 -6.55e-4,-22.911287 -2.010598,-5.29e-4 v -4.21932"
       id="path6-5"
       sodipodi:nodetypes="cccccccccccccccccccccccccccccccccccccccccccccccccccccccccccccccccccccccccccccccccccccccccccccccccccccccccc" />
    <rect
       style="display:inline;vector-effect:non-scaling-stroke;fill:none;stroke:#000000;stroke-width:0.303612;stroke-dasharray:none;stroke-opacity:1;-inkscape-stroke:hairline"
       id="rect8-0-39-4"
       width="7.8109999"
       height="4.2341738"
       x="53.475075"
       y="8.1496181" />
    <path
       style="display:inline;vector-effect:non-scaling-stroke;fill:none;stroke:#000000;stroke-width:0.27269;stroke-dasharray:none;stroke-opacity:1;-inkscape-stroke:hairline"
       id="path4-0-5-29-1-0-9-9-7-1-1-1-5"
       transform="scale(-1)"
       sodipodi:type="arc"
       sodipodi:cx="-57.379719"
       sodipodi:cy="-10.26697"
       sodipodi:rx="1.5"
       sodipodi:ry="1.5"
       sodipodi:start="0"
       sodipodi:end="6.2825678"
       sodipodi:arc-type="arc"
       d="m -55.879719,-10.26697 a 1.5,1.5 0 0 1 -1.499768,1.5000003 1.5,1.5 0 0 1 -1.500232,-1.4995373 1.5,1.5 0 0 1 1.499306,-1.500463 1.5,1.5 0 0 1 1.500694,1.499074"
       sodipodi:open="true" />
    <rect
       style="display:inline;vector-effect:non-scaling-stroke;fill:none;stroke:#000000;stroke-width:0.303612;stroke-dasharray:none;stroke-opacity:1;-inkscape-stroke:hairline"
       id="rect8-0-39-5"
       width="7.8109999"
       height="4.2341738"
       x="42.709595"
       y="2.5666485" />
    <path
       style="display:inline;vector-effect:non-scaling-stroke;fill:none;stroke:#000000;stroke-width:0.27269;stroke-dasharray:none;stroke-opacity:1;-inkscape-stroke:hairline"
       id="path4-0-5-29-1-0-9-9-7-1-1-1-8"
       transform="scale(-1)"
       sodipodi:type="arc"
       sodipodi:cx="-46.614239"
       sodipodi:cy="-4.684"
       sodipodi:rx="1.5"
       sodipodi:ry="1.5"
       sodipodi:start="0"
       sodipodi:end="6.2825678"
       sodipodi:arc-type="arc"
       d="m -45.114239,-4.684 a 1.5,1.5 0 0 1 -1.499768,1.5 1.5,1.5 0 0 1 -1.500232,-1.4995369 1.5,1.5 0 0 1 1.499306,-1.500463 1.5,1.5 0 0 1 1.500694,1.4990736"
       sodipodi:open="true" />
    <rect
       style="display:inline;vector-effect:non-scaling-stroke;fill:none;stroke:#000000;stroke-width:0.303612;stroke-dasharray:none;stroke-opacity:1;-inkscape-stroke:hairline"
       id="rect8-0-39-9"
       width="7.8109999"
       height="4.2341738"
       x="42.709595"
       y="8.1496201" />
    <path
       style="display:inline;vector-effect:non-scaling-stroke;fill:none;stroke:#000000;stroke-width:0.27269;stroke-dasharray:none;stroke-opacity:1;-inkscape-stroke:hairline"
       id="path4-0-5-29-1-0-9-9-7-1-1-1-4"
       transform="scale(-1)"
       sodipodi:type="arc"
       sodipodi:cx="-46.614239"
       sodipodi:cy="-10.26697"
       sodipodi:rx="1.5"
       sodipodi:ry="1.5"
       sodipodi:start="0"
       sodipodi:end="6.2825678"
       sodipodi:arc-type="arc"
       d="m -45.114239,-10.26697 a 1.5,1.5 0 0 1 -1.499768,1.5000003 1.5,1.5 0 0 1 -1.500232,-1.4995373 1.5,1.5 0 0 1 1.499306,-1.500463 1.5,1.5 0 0 1 1.500694,1.499074"
       sodipodi:open="true" />
  </g>
</svg>
